<svg width="900" height="720" viewBox="0 0 900 720" fill="none" xmlns="http://www.w3.org/2000/svg" role="img" aria-labelledby="title desc">
  <title id="title">Dino birthday party illustration</title>
  <desc id="desc">A bright birthday illustration with a friendly dino, balloons, cake, companions, and a sailboat.</desc>
  <rect width="900" height="720" rx="32" fill="#FFFDF8"/>
  <path d="M82 568C139 493 199 470 263 499C351 539 424 536 503 487C594 432 683 451 819 556V644H82V568Z" fill="#DFF4EC"/>
  <path d="M0 570C80 530 155 533 225 580C311 638 407 649 514 602C647 544 758 549 900 642V720H0V570Z" fill="#BFE9DD"/>
  <circle cx="147" cy="121" r="48" fill="#EF5B5B"/>
  <path d="M147 169C144 214 120 248 102 277" stroke="#3157A4" stroke-width="6" stroke-linecap="round"/>
  <circle cx="776" cy="120" r="54" fill="#F6C945"/>
  <path d="M776 174C756 219 761 257 775 293" stroke="#3157A4" stroke-width="6" stroke-linecap="round"/>
  <circle cx="706" cy="211" r="42" fill="#10A896"/>
  <path d="M706 253C697 296 705 337 731 374" stroke="#3157A4" stroke-width="6" stroke-linecap="round"/>
  <path d="M292 569C276 477 289 372 334 299C378 229 446 189 526 197C625 208 687 280 680 375C671 499 585 594 457 602C374 607 310 601 292 569Z" fill="#10A896"/>
  <path d="M340 292C289 294 247 271 223 238C197 203 204 166 237 149C281 126 335 161 365 218L340 292Z" fill="#10A896"/>
  <path d="M236 168C210 145 183 134 155 133C197 110 243 120 275 154L236 168Z" fill="#0F766E"/>
  <path d="M349 238C372 176 416 130 470 109C492 100 506 126 488 142C451 173 426 211 416 263L349 238Z" fill="#10A896"/>
  <path d="M492 120C528 104 568 106 604 127C557 128 527 145 504 175L492 120Z" fill="#0F766E"/>
  <path d="M507 198C541 158 592 132 651 129C683 128 698 168 672 187C633 214 607 249 596 293L507 198Z" fill="#10A896"/>
  <path d="M648 149C692 151 728 173 752 211C704 190 666 189 631 209L648 149Z" fill="#0F766E"/>
  <circle cx="538" cy="298" r="14" fill="#1E2930"/>
  <circle cx="601" cy="302" r="14" fill="#1E2930"/>
  <circle cx="542" cy="294" r="4" fill="#FFFDF8"/>
  <circle cx="605" cy="298" r="4" fill="#FFFDF8"/>
  <path d="M546 356C568 376 603 376 626 355" stroke="#1E2930" stroke-width="8" stroke-linecap="round"/>
  <path d="M433 340C374 333 330 349 302 388C274 428 284 473 322 493C363 514 412 489 432 440" stroke="#0F766E" stroke-width="28" stroke-linecap="round"/>
  <path d="M658 375C712 386 750 416 769 464C788 510 764 545 721 535C681 526 659 489 664 440" stroke="#0F766E" stroke-width="28" stroke-linecap="round"/>
  <path d="M377 601C360 642 327 666 287 672" stroke="#0F766E" stroke-width="30" stroke-linecap="round"/>
  <path d="M548 597C582 631 623 649 671 650" stroke="#0F766E" stroke-width="30" stroke-linecap="round"/>
  <circle cx="409" cy="268" r="12" fill="#F6C945"/>
  <circle cx="461" cy="242" r="12" fill="#F6C945"/>
  <circle cx="636" cy="383" r="12" fill="#F6C945"/>
  <circle cx="387" cy="443" r="12" fill="#F6C945"/>
  <rect x="183" y="470" width="178" height="106" rx="14" fill="#FFF3F0" stroke="#1E2930" stroke-opacity=".16" stroke-width="6"/>
  <path d="M183 510H361V576H183V510Z" fill="#EF5B5B"/>
  <path d="M201 510C212 534 233 534 244 510C255 534 277 534 288 510C299 534 322 534 333 510C344 534 358 526 361 510V470H183V510C186 527 192 527 201 510Z" fill="#FFFDF8"/>
  <rect x="210" y="427" width="10" height="44" rx="5" fill="#3157A4"/>
  <rect x="268" y="418" width="10" height="53" rx="5" fill="#3157A4"/>
  <rect x="326" y="427" width="10" height="44" rx="5" fill="#3157A4"/>
  <path d="M215 403C226 419 225 427 215 435C205 427 204 419 215 403Z" fill="#F6C945"/>
  <path d="M273 394C284 410 283 420 273 428C263 420 262 410 273 394Z" fill="#F6C945"/>
  <path d="M331 403C342 419 341 427 331 435C321 427 320 419 331 403Z" fill="#F6C945"/>
  <ellipse cx="194" cy="625" rx="64" ry="58" fill="#F28F3B"/>
  <circle cx="170" cy="610" r="8" fill="#1E2930"/>
  <circle cx="214" cy="610" r="8" fill="#1E2930"/>
  <path d="M174 637C190 649 205 649 221 637" stroke="#1E2930" stroke-width="6" stroke-linecap="round"/>
  <ellipse cx="730" cy="623" rx="66" ry="56" fill="#3157A4"/>
  <circle cx="707" cy="608" r="8" fill="#FFFDF8"/>
  <circle cx="752" cy="608" r="8" fill="#FFFDF8"/>
  <path d="M709 635C723 646 738 646 754 635" stroke="#FFFDF8" stroke-width="6" stroke-linecap="round"/>
  <path d="M664 560H837" stroke="#1E2930" stroke-opacity=".18" stroke-width="5" stroke-linecap="round"/>
  <path d="M741 444V555" stroke="#3157A4" stroke-width="7" stroke-linecap="round"/>
  <path d="M748 459C794 478 823 507 835 544H748V459Z" fill="#FFFDF8" stroke="#3157A4" stroke-width="7" stroke-linejoin="round"/>
  <path d="M734 487C707 508 691 530 686 552H734V487Z" fill="#F6C945" stroke="#3157A4" stroke-width="7" stroke-linejoin="round"/>
  <path d="M680 553C724 578 779 578 831 553" stroke="#EF5B5B" stroke-width="9" stroke-linecap="round"/>
  <rect x="97" y="322" width="145" height="58" rx="10" fill="#FFFFFF" stroke="#3157A4" stroke-width="6"/>
  <text x="124" y="360" fill="#3157A4" font-family="Arial, sans-serif" font-size="30" font-weight="800">INS</text>
  <rect x="664" y="328" width="150" height="58" rx="10" fill="#FFFFFF" stroke="#EF5B5B" stroke-width="6"/>
  <text x="691" y="366" fill="#EF5B5B" font-family="Arial, sans-serif" font-size="30" font-weight="800">HERO</text>
  <path d="M114 73L128 101L159 106L136 128L142 159L114 144L86 159L92 128L69 106L100 101L114 73Z" fill="#F6C945"/>
  <path d="M803 269L816 296L846 300L824 321L829 351L803 337L776 351L781 321L759 300L790 296L803 269Z" fill="#EF5B5B"/>
</svg>
